<svg version="1.1" xmlns="http://www.w3.org/2000/svg" width="1220" height="1059">
	<path d="M0 0 C22.84372228 -0.21021537 45.68728516 -0.36893636 68.53177834 -0.46630955 C79.13886466 -0.512723 89.74535012 -0.57600271 100.35205078 -0.67895508 C109.5965942 -0.76864312 118.84070253 -0.8267197 128.08566892 -0.84679645 C132.98137291 -0.85853333 137.87583215 -0.88612405 142.77113724 -0.95157051 C147.37945476 -1.01268079 151.98601563 -1.03150143 156.59469986 -1.01796913 C158.28546194 -1.0204444 159.97628296 -1.03833978 161.66669464 -1.07284927 C174.45586045 -1.32112244 174.45586045 -1.32112244 178.3090477 1.97555637 C179.86826797 4.27280326 180.97021267 6.42927438 182 9 C182.54527344 9.9082251 183.09054688 10.8164502 183.65234375 11.75219727 C184.28849609 12.89773071 184.28849609 12.89773071 184.9375 14.06640625 C185.43290283 14.95207275 185.92830566 15.83773926 186.4387207 16.75024414 C186.95394287 17.67828857 187.46916504 18.60633301 188 19.5625 C192.69275738 27.94276559 197.4597861 36.2738129 202.3125 44.5625 C203.47786529 46.55598917 204.64322989 48.54947874 205.80859375 50.54296875 C208.09955217 54.46038135 208.09955217 54.46038135 210.39111328 58.37744141 C211.55695212 60.37403574 212.71712907 62.37377789 213.875 64.375 C214.49117187 65.43460937 215.10734375 66.49421875 215.7421875 67.5859375 C217 70 217 70 217 72 C187.3 72 157.6 72 127 72 C135.05073137 86.37630602 143.0971405 100.70746602 151.4375 114.91015625 C155.1321331 121.21570419 158.78852681 127.54294436 162.4375 133.875 C163.06003662 134.95515381 163.68257324 136.03530762 164.32397461 137.14819336 C165.58576826 139.33796334 166.84740534 141.52782355 168.10888672 143.71777344 C171.23680148 149.14659942 174.36858448 154.57319281 177.5 160 C178.75001879 162.16665583 180.00001878 164.3333225 181.25 166.5 C181.86875 167.5725 182.4875 168.645 183.125 169.75 C203.75 205.5 203.75 205.5 205.62524414 208.75048828 C206.87435518 210.91557071 208.12354129 213.08060982 209.37280273 215.24560547 C212.51202309 220.68615706 215.64990563 226.12747216 218.78515625 231.5703125 C224.80747329 242.02206199 230.84669337 252.46299548 236.9375 262.875 C242.35921178 272.14499777 247.70204915 281.45831752 253.01922607 290.78845215 C258.22045129 299.9128284 263.48027878 309.00132774 268.78344727 318.06689453 C274.93766742 328.59084625 281.02369996 339.15380137 287.10888672 349.71777344 C290.23680148 355.14659942 293.36858448 360.57319281 296.5 366 C297.75001879 368.16665583 299.00001878 370.3333225 300.25 372.5 C300.86875 373.5725 301.4875 374.645 302.125 375.75 C412.75 567.5 412.75 567.5 414.62524414 570.75048828 C415.87435518 572.91557071 417.12354129 575.08060982 418.37280273 577.24560547 C421.51202309 582.68615706 424.64990563 588.12747216 427.78515625 593.5703125 C435.5986886 607.13110509 443.4536897 620.66686512 451.3515625 634.17871094 C454.23721443 639.11748369 457.11845949 644.05882765 460 649 C462.56970788 645.89748085 464.79103685 642.84706936 466.7421875 639.32421875 C467.24355225 638.42646729 467.74491699 637.52871582 468.26147461 636.60375977 C468.79393799 635.64139404 469.32640137 634.67902832 469.875 633.6875 C474.48961327 625.43526183 479.16186019 617.22267936 483.9375 609.0625 C484.50791016 608.08756592 485.07832031 607.11263184 485.66601562 606.1081543 C486.83439361 604.11239331 488.00318008 602.1168714 489.17236328 600.12158203 C492.41378928 594.58526453 495.64360974 589.04217885 498.875 583.5 C500.05984746 581.46872178 501.24473862 579.43746906 502.4296875 577.40625 C502.92710449 576.55353516 503.42452148 575.70082031 503.93701172 574.82226562 C504.46319092 573.92024414 504.46319092 573.92024414 505 573 C508.80483177 574.26827726 509.10984818 575.43121169 511.046875 578.87109375 C511.93197754 580.42558228 511.93197754 580.42558228 512.83496094 582.01147461 C513.46692383 583.14206299 514.09888672 584.27265137 514.75 585.4375 C515.41602743 586.61325862 516.08303483 587.7884626 516.75097656 588.96313477 C518.1424904 591.41208721 519.52971044 593.8633988 520.9140625 596.31640625 C523.53281635 600.94977353 526.19394192 605.55818542 528.85864258 610.1652832 C530.11489135 612.33870546 531.36736495 614.51431436 532.6159668 616.69213867 C535.49993085 621.717664 538.41671767 626.71176868 541.45703125 631.64453125 C541.98393555 632.51215088 542.51083984 633.37977051 543.05371094 634.27368164 C544.02826626 635.87318239 545.01880177 637.46310452 546.02832031 639.04077148 C549.10303427 644.12780297 549.10303427 644.12780297 548.6640625 647.84375 C546.17656679 652.56181697 543.5452582 657.16977991 540.8125 661.75 C539.53835577 663.90843713 538.2649432 666.06730631 536.9921875 668.2265625 C536.3331543 669.34192383 535.67412109 670.45728516 534.99511719 671.60644531 C531.77091796 677.09058252 528.60627778 682.6087197 525.4375 688.125 C520.15724195 697.30337528 514.81719918 706.44344662 509.38647461 715.53369141 C506.3176257 720.69000375 503.38551772 725.90332336 500.52954102 731.18041992 C488.26977692 753.78026279 475.32045677 776.01067454 462 798 C458.07612434 796.69204145 457.7265064 795.2626032 455.734375 791.69140625 C455.09943115 790.56524902 454.4644873 789.4390918 453.81030273 788.27880859 C453.12350331 787.04005672 452.4367366 785.8012867 451.75 784.5625 C451.03367412 783.28668728 450.31629291 782.01146657 449.59790039 780.73681641 C448.11756612 778.1093667 446.64093264 775.47988874 445.16650391 772.84912109 C441.97305482 767.16255782 438.70528068 761.51907265 435.4375 755.875 C434.19646826 753.72664702 432.95558302 751.5782094 431.71484375 749.4296875 C431.10237793 748.36975586 430.48991211 747.30982422 429.85888672 746.21777344 C426.73675393 740.81329351 423.61863474 735.40649893 420.5 730 C419.88189453 728.92878906 419.26378906 727.85757813 418.62695312 726.75390625 C415.48777626 721.31353925 412.35000371 715.87237045 409.21484375 710.4296875 C403.19252671 699.97793801 397.15330663 689.53700452 391.0625 679.125 C385.64078822 669.85500223 380.29795085 660.54168248 374.98077393 651.21154785 C369.77954871 642.0871716 364.51972122 632.99867226 359.21655273 623.93310547 C353.06233258 613.40915375 346.97630004 602.84619863 340.89111328 592.28222656 C337.76319852 586.85340058 334.63141552 581.42680719 331.5 576 C330.24998121 573.83334417 328.99998122 571.6666775 327.75 569.5 C327.13125 568.4275 326.5125 567.355 325.875 566.25 C215.25 374.5 215.25 374.5 213.37475586 371.24951172 C212.12564482 369.08442929 210.87645871 366.91939018 209.62719727 364.75439453 C206.48797691 359.31384294 203.35009437 353.87252784 200.21484375 348.4296875 C194.19252671 337.97793801 188.15330663 327.53700452 182.0625 317.125 C176.64078822 307.85500223 171.29795085 298.54168248 165.98077393 289.21154785 C160.77954871 280.0871716 155.51972122 270.99867226 150.21655273 261.93310547 C144.06233258 251.40915375 137.97630004 240.84619863 131.89111328 230.28222656 C128.76319852 224.85340058 125.63141552 219.42680719 122.5 214 C121.24998121 211.83334417 119.99998122 209.6666775 118.75 207.5 C118.13125 206.4275 117.5125 205.355 116.875 204.25 C36.25 64.5 36.25 64.5 34.3737793 61.24780273 C33.1279423 59.08840605 31.88201182 56.92906331 30.63598633 54.76977539 C27.44651047 49.24232403 24.25883115 43.71384879 21.07421875 38.18359375 C19.77868343 35.93487417 18.48311104 33.68617595 17.1875 31.4375 C16.56673584 30.35919922 15.94597168 29.28089844 15.30639648 28.16992188 C12.5088363 23.31758267 9.69879849 18.47430694 6.8359375 13.66015625 C6.36260986 12.86359619 5.88928223 12.06703613 5.40161133 11.24633789 C4.5357448 9.7938606 3.66604464 8.34365882 2.79174805 6.89624023 C0 2.21802943 0 2.21802943 0 0 Z " fill="url(#gradient-ff8vjhw)" transform="translate(19,19)"/>
	<path d="M0 0 C303.93 0 607.86 0 921 0 C919.57181199 4.28456404 918.48701477 7.1910008 916.26953125 10.921875 C915.72135742 11.85185303 915.17318359 12.78183105 914.60839844 13.73999023 C914.01575195 14.73329346 913.42310547 15.72659668 912.8125 16.75 C911.54226885 18.90193077 910.27276288 21.05428973 909.00390625 23.20703125 C908.34535645 24.32158691 907.68680664 25.43614258 907.00830078 26.58447266 C903.71790081 32.18047261 900.48559503 37.80969583 897.25 43.4375 C892.78936013 51.18265883 888.30765332 58.91377997 883.76538086 66.61132812 C873.38027256 84.21191207 863.15269865 101.90404711 852.95263672 119.61230469 C850.88857242 123.19331946 848.8216295 126.77265987 846.75390625 130.3515625 C845.71407145 132.15185866 844.67427733 133.95217831 843.63449097 135.75250244 C842.64282016 137.46915208 841.65063837 139.1855065 840.65844727 140.90185547 C840.06217529 141.93455566 839.46590332 142.96725586 838.8515625 144.03125 C838.32385254 144.94455078 837.79614258 145.85785156 837.25244141 146.79882812 C836.46663489 148.17988691 835.71060752 149.57878495 835 151 C806.95 151 778.9 151 750 151 C749.67 150.34 749.34 149.68 749 149 C750.1171875 146.61523437 750.1171875 146.61523437 751.875 143.59375 C752.52299561 142.47049316 753.17099121 141.34723633 753.83862305 140.18994141 C754.55893064 138.95987227 755.2793937 137.72989417 756 136.5 C756.73487806 135.2326921 757.46899981 133.96494536 758.20239258 132.69677734 C759.71768333 130.07903507 761.23727864 127.46386455 762.76025391 124.85058594 C764.8365156 121.2855177 766.89544759 117.71088731 768.94921875 114.1328125 C776.86136219 100.35742253 784.91692732 86.67904608 793 73 C573.22 72.67 353.44 72.34 127 72 C135.18965125 86.76291167 135.18965125 86.76291167 143.625 101.375 C149.01785544 110.57070396 154.34237261 119.8032171 159.625 129.0625 C159.96670227 129.66141052 160.30840454 130.26032104 160.66046143 130.87738037 C162.24073331 133.6477984 163.81966974 136.41895139 165.39550781 139.19189453 C166.36943826 140.89642101 167.35107161 142.59661807 168.34667969 144.28857422 C171 148.8010791 171 148.8010791 171 151 C160.1618495 151.55873177 149.32716833 151.98372718 138.47749901 152.24349213 C133.43714963 152.36826409 128.40670932 152.53694417 123.37207031 152.81054688 C90.95266864 154.5266022 90.95266864 154.5266022 82.87435913 148.77435303 C77.948435 143.19825923 75.31129199 136.88678923 72.99414062 129.88342285 C71.71180785 126.16412246 69.97466821 123.20508332 67.87890625 119.8828125 C66.77286797 117.96386982 65.66738375 116.04460767 64.5625 114.125 C63.64863525 112.53981567 63.64863525 112.53981567 62.71630859 110.92260742 C59.48591201 105.31881607 56.25954327 99.71271974 53.03515625 94.10546875 C45.36820525 80.74359877 45.36820525 80.74359877 37.5 67.5 C31.50406018 57.60698564 25.79069989 47.54736067 20.02441406 37.51953125 C17.26867957 32.7275315 14.50813646 27.93830583 11.74658203 23.1496582 C10.44235552 20.88807394 9.13862286 18.62620479 7.83544922 16.36401367 C7.24521973 15.34025635 6.65499023 14.31649902 6.046875 13.26171875 C5.52963867 12.36412842 5.01240234 11.46653809 4.47949219 10.54174805 C3.46069316 8.79146477 2.40124502 7.06442373 1.30957031 5.35864258 C0 3 0 3 0 0 Z " fill="url(#gradient-ff8vjhw)" transform="translate(281,19)"/>
	<path d="M0 0 C1.8363956 0.06637266 3.67273982 0.13418041 5.5090332 0.20332336 C7.40325594 0.2275947 9.29756074 0.24608809 11.19189453 0.25906372 C16.15896115 0.3085162 21.12102177 0.43602004 26.08612061 0.58021545 C31.15999619 0.71362352 36.23468759 0.77266285 41.30981445 0.83808899 C51.25341093 0.97717904 61.19330462 1.19880004 71.1340332 1.47285461 C70.33382076 6.17848438 68.48250033 9.63327277 66.0090332 13.66035461 C65.09233515 15.18559563 64.17706281 16.71169411 63.26293945 18.23847961 C62.51101318 19.49048157 62.51101318 19.49048157 61.74389648 20.76777649 C58.75833302 25.78446488 55.85724699 30.84999907 52.9465332 35.91035461 C51.65101179 38.1590822 50.35543818 40.40777972 49.05981445 42.65644836 C48.40964355 43.78550598 47.75947266 44.9145636 47.08959961 46.07783508 C43.94071267 51.54455441 40.78720057 57.00860348 37.6340332 62.47285461 C36.3840097 64.63950772 35.13400974 66.80617441 33.8840332 68.97285461 C22.6340332 88.47285461 22.6340332 88.47285461 11.3840332 107.97285461 C10.76520264 109.04551575 10.14637207 110.11817688 9.50878906 111.2233429 C8.25967802 113.38842532 7.01049191 115.55346444 5.76123047 117.71846008 C2.62201011 123.15901167 -0.51587242 128.60032677 -3.65112305 134.04316711 C-9.67344008 144.49491661 -15.71266017 154.93585009 -21.8034668 165.34785461 C-26.87871803 174.02547703 -31.88855446 182.73891029 -36.8659668 191.47285461 C-42.40224793 201.18745488 -47.9911031 210.86937002 -53.63842773 220.51997375 C-57.99409832 227.96638554 -62.31130624 235.43435214 -66.6159668 242.91035461 C-72.31022481 252.79783074 -78.05403552 262.65410954 -83.8659668 272.47285461 C-87.67079856 271.20457736 -87.97581497 270.04164292 -89.9128418 266.60176086 C-90.79794434 265.04727234 -90.79794434 265.04727234 -91.70092773 263.46138 C-92.33289063 262.33079163 -92.96485352 261.20020325 -93.6159668 260.03535461 C-94.28199422 258.859596 -94.94900163 257.68439201 -95.61694336 256.50971985 C-97.0084572 254.06076741 -98.39567724 251.60945582 -99.7800293 249.15644836 C-102.39878315 244.52308109 -105.05990872 239.9146692 -107.72460938 235.30757141 C-108.98085814 233.13414915 -110.23333175 230.95854025 -111.48193359 228.78071594 C-114.36589765 223.75519062 -117.28268447 218.76108593 -120.32299805 213.82832336 C-121.11335449 212.52689392 -121.11335449 212.52689392 -121.91967773 211.19917297 C-122.89423306 209.59967222 -123.88476857 208.00975009 -124.89428711 206.43208313 C-127.96900106 201.34505165 -127.96900106 201.34505165 -127.5300293 197.62910461 C-125.04253071 192.91103219 -122.41112071 188.30314045 -119.6784668 183.72285461 C-118.40176902 181.55917913 -117.12575009 179.39510296 -115.8503418 177.23066711 C-115.19098633 176.11466125 -114.53163086 174.9986554 -113.85229492 173.84883118 C-110.67671324 168.45159132 -107.5522012 163.02521461 -104.4284668 157.59785461 C-103.16938332 155.41294086 -101.91026857 153.22804512 -100.65112305 151.04316711 C-100.02608887 149.95809875 -99.40105469 148.8730304 -98.75708008 147.75508118 C-95.62916531 142.32625519 -92.49738232 136.8996618 -89.3659668 131.47285461 C-88.11594801 129.30619879 -86.86594801 127.13953212 -85.6159668 124.97285461 C-81.8659668 118.47285461 -81.8659668 118.47285461 -78.1159668 111.97285461 C-77.49713623 110.90019348 -76.87830566 109.82753235 -76.24072266 108.72236633 C-74.99161162 106.55728391 -73.7424255 104.39224479 -72.49316406 102.22724915 C-69.3539437 96.78669756 -66.21606117 91.34538246 -63.08081055 85.90254211 C-56.49510148 74.47302405 -49.88115828 63.06120732 -43.21875 51.67622375 C-40.02138466 46.2015301 -36.85171317 40.71213754 -33.71362305 35.20332336 C-33.18548759 34.27652771 -33.18548759 34.27652771 -32.64668274 33.33100891 C-30.94282369 30.33945253 -29.24225391 27.34611898 -27.54589844 24.35029602 C-26.32942987 22.21012807 -25.09276232 20.08125024 -23.83143616 17.96720886 C-22.48712787 15.66619459 -21.46656549 13.51830337 -20.42709351 11.03401184 C-15.74743025 1.03414838 -10.49890324 -0.14148867 0 0 Z " fill="url(#gradient-ff8vjhw)" transform="translate(782.865966796875,166.5271453857422)"/>
	<path d="M0 0 C102.96 0 205.92 0 312 0 C312.33 0.66 312.66 1.32 313 2 C311.97460938 4.20117187 311.97460938 4.20117187 310.34375 6.96875 C309.74087158 8.00177246 309.13799316 9.03479492 308.5168457 10.09912109 C307.85128662 11.22141113 307.18572754 12.34370117 306.5 13.5 C305.8132196 14.67090227 305.12727753 15.84229661 304.44213867 17.01416016 C303.01321862 19.45692975 301.58066165 21.89751503 300.14599609 24.33691406 C296.25436668 30.96554008 292.44915451 37.64453012 288.62890625 44.31445312 C287.49577169 46.28314448 286.33930189 48.23859166 285.15971565 50.17980671 C283.48195525 53.02487441 282.11675798 55.93003573 280.77520561 58.94704723 C274.47506998 72.23293735 274.47506998 72.23293735 268.7249074 75.15687776 C262.17685362 76.98814272 255.44444859 76.60550741 248.71142578 76.41333008 C246.46321183 76.42243411 244.21501893 76.44022152 241.9669342 76.46598816 C235.88817506 76.51001547 229.81686675 76.42985956 223.73909998 76.32426286 C217.3719142 76.23240576 211.00489942 76.24737935 204.63717651 76.24845886 C193.9516827 76.23454058 183.26931025 76.14459987 172.58496094 76.00317383 C161.60047811 75.8578611 150.61827141 75.78012562 139.6328125 75.77758789 C138.95533561 75.77742205 138.27785873 75.77725621 137.57985224 75.77708534 C136.90352086 75.77692917 136.22718947 75.776773 135.5303632 75.7766121 C122.36898173 75.77317438 109.20850856 75.7003711 96.04746389 75.60513854 C92.2574416 75.58202899 88.46754459 75.57120445 84.67746353 75.56287575 C78.72565207 75.54605314 72.77604872 75.48292397 66.82505608 75.38383675 C64.64109297 75.35435195 62.45686442 75.34005704 60.27270317 75.34201431 C43.76761591 75.341672 43.76761591 75.341672 39.42800522 72.04778099 C37.8296781 69.71081875 36.90097033 67.67128665 36 65 C35.26374236 63.66219826 34.50680222 62.33530495 33.71875 61.02734375 C32.97610961 59.6657254 32.23665493 58.30236585 31.5 56.9375 C27.49118419 49.617561 23.3446052 42.38785835 19.125 35.1875 C14.43851299 27.17804298 9.75655867 19.16638501 5.125 11.125 C4.60695801 10.23321045 4.08891602 9.3414209 3.55517578 8.42260742 C3.0857959 7.6051001 2.61641602 6.78759277 2.1328125 5.9453125 C1.71918457 5.22875488 1.30555664 4.51219727 0.87939453 3.77392578 C0 2 0 2 0 0 Z " fill="url(#gradient-ff8vjhw)" transform="translate(323,244)"/>
	<path d="M0 0 C-1.2576107 4.10897287 -2.77976192 7.65406986 -4.94921875 11.359375 C-5.5421875 12.37902344 -6.13515625 13.39867187 -6.74609375 14.44921875 C-7.38675781 15.53847656 -8.02742188 16.62773437 -8.6875 17.75 C-9.36256639 18.90720972 -10.03703462 20.06476857 -10.7109375 21.22265625 C-12.11015805 23.62570582 -13.51192935 26.0272392 -14.91552734 28.42773438 C-18.13449384 33.93786845 -21.31515029 39.47010358 -24.5 45 C-25.74853821 47.16415464 -26.99723668 49.32821684 -28.24609375 51.4921875 C-30.76069436 55.85065388 -33.27354661 60.21012191 -35.78515625 64.5703125 C-41.80747329 75.02206199 -47.84669337 85.46299548 -53.9375 95.875 C-59.01275123 104.55262241 -64.02258767 113.26605568 -69 122 C-74.5400173 131.72115617 -80.13374809 141.40894658 -85.78344727 151.06689453 C-91.93766742 161.59084625 -98.02369996 172.15380137 -104.10888672 182.71777344 C-107.23680148 188.14659942 -110.36858448 193.57319281 -113.5 199 C-114.75001879 201.16665583 -116.00001878 203.3333225 -117.25 205.5 C-149.75 261.83333333 -182.25 318.16666667 -214.75 374.5 C-215.36883057 375.57266113 -215.98766113 376.64532227 -216.62524414 377.75048828 C-217.87435518 379.91557071 -219.12354129 382.08060982 -220.37280273 384.24560547 C-223.51202309 389.68615706 -226.64990563 395.12747216 -229.78515625 400.5703125 C-235.80747329 411.02206199 -241.84669337 421.46299548 -247.9375 431.875 C-253.01275123 440.55262241 -258.02258767 449.26605568 -263 458 C-268.5400173 467.72115617 -274.13374809 477.40894658 -279.78344727 487.06689453 C-285.93766742 497.59084625 -292.02369996 508.15380137 -298.10888672 518.71777344 C-301.23680148 524.14659942 -304.36858448 529.57319281 -307.5 535 C-308.75001879 537.16665583 -310.00001878 539.3333225 -311.25 541.5 C-348.75 606.5 -386.25 671.5 -423.75 736.5 C-424.36915283 737.5732251 -424.98830566 738.6464502 -425.6262207 739.75219727 C-426.8720577 741.91159395 -428.11798818 744.07093669 -429.36401367 746.23022461 C-433.20652953 752.88941265 -437.04532862 759.55072753 -440.88183594 766.21337891 C-442.76280896 769.47630099 -444.64853896 772.73643274 -446.53515625 775.99609375 C-448.73005663 779.7895921 -450.90476722 783.59320353 -453.05859375 787.41015625 C-453.95563468 788.98182477 -454.85276314 790.55344333 -455.75 792.125 C-456.34131714 793.1914978 -456.34131714 793.1914978 -456.94458008 794.27954102 C-458.046875 796.1953125 -458.046875 796.1953125 -460 799 C-460.99 799 -461.98 799 -463 799 C-463.48073975 798.14341797 -463.48073975 798.14341797 -463.97119141 797.26953125 C-470.75962857 785.18625718 -477.62688908 773.15439352 -484.62768555 761.19287109 C-490.83596803 750.58353211 -496.97328774 739.93371497 -503.10888672 729.28222656 C-506.23680148 723.85340058 -509.36858448 718.42680719 -512.5 713 C-513.75001879 710.83334417 -515.00001878 708.6666775 -516.25 706.5 C-516.86875 705.4275 -517.4875 704.355 -518.125 703.25 C-520 700 -521.875 696.75 -523.75 693.5 C-524.37011963 692.42580811 -524.99023926 691.35161621 -525.62915039 690.24487305 C-526.867707 688.09667314 -528.10390766 685.94711302 -529.33764648 683.79614258 C-532.2648392 678.69939716 -535.21471421 673.62024786 -538.24905396 668.5866394 C-539.68501707 666.20131875 -541.10765308 663.80818207 -542.52929688 661.41430664 C-543.54175337 659.72217413 -544.57343389 658.04159139 -545.60546875 656.36132812 C-546.21132813 655.33845703 -546.8171875 654.31558594 -547.44140625 653.26171875 C-547.98482666 652.36412842 -548.52824707 651.46653809 -549.08813477 650.54174805 C-550 648 -550 648 -549.33276367 645.49072266 C-548.89295166 644.66878418 -548.45313965 643.8468457 -548 643 C-547.57428711 642.18104248 -547.14857422 641.36208496 -546.70996094 640.51831055 C-546.22301758 639.64988525 -545.73607422 638.78145996 -545.234375 637.88671875 C-544.68112549 636.89816895 -544.12787598 635.90961914 -543.55786133 634.89111328 C-542.96126709 633.8339209 -542.36467285 632.77672852 -541.75 631.6875 C-541.12955811 630.58390137 -540.50911621 629.48030273 -539.86987305 628.34326172 C-534.4579263 618.74765018 -528.92880886 609.22235003 -523.34375 599.7265625 C-521.11506912 595.93084038 -518.93021163 592.11483874 -516.78125 588.2734375 C-516.27875732 587.38188965 -515.77626465 586.4903418 -515.25854492 585.57177734 C-514.31718277 583.89757358 -513.38456815 582.21841122 -512.4621582 580.53369141 C-511.39173602 578.63937103 -510.20644271 576.81073171 -509 575 C-508.01 575 -507.02 575 -506 575 C-505.67950684 575.57105469 -505.35901367 576.14210938 -505.02880859 576.73046875 C-498.24987271 588.79683075 -491.39495489 600.81357816 -484.40087891 612.7565918 C-481.20029703 618.22362082 -478.01358632 623.69810312 -474.8515625 629.1875 C-474.33573105 630.08295784 -474.33573105 630.08295784 -473.80947876 630.99650574 C-472.13712185 633.90077836 -470.46652497 636.80604711 -468.79736328 639.7121582 C-467.89993408 641.27196411 -467.89993408 641.27196411 -466.984375 642.86328125 C-466.45553711 643.78407471 -465.92669922 644.70486816 -465.38183594 645.65356445 C-464.31175189 647.47062767 -463.16972036 649.24541946 -462 651 C-454.63038388 639.36872089 -447.84279802 627.39799619 -440.98779297 615.45947266 C-437.8327737 609.96860763 -434.66602037 604.48452655 -431.5 599 C-430.24993888 596.83336859 -428.999939 594.66670186 -427.75 592.5 C-400.25 544.83333333 -372.75 497.16666667 -345.25 449.5 C-344.63116943 448.42733887 -344.01233887 447.35467773 -343.37475586 446.24951172 C-342.12564482 444.08442929 -340.87645871 441.91939018 -339.62719727 439.75439453 C-336.48797691 434.31384294 -333.35009437 428.87252784 -330.21484375 423.4296875 C-324.19252671 412.97793801 -318.15330663 402.53700452 -312.0625 392.125 C-306.98724877 383.44737759 -301.97741233 374.73394432 -297 366 C-291.4599827 356.27884383 -285.86625191 346.59105342 -280.21655273 336.93310547 C-274.06233258 326.40915375 -267.97630004 315.84619863 -261.89111328 305.28222656 C-258.76319852 299.85340058 -255.63141552 294.42680719 -252.5 289 C-251.24998121 286.83334417 -249.99998122 284.6666775 -248.75 282.5 C-221.25 234.83333333 -193.75 187.16666667 -166.25 139.5 C-165.63092773 138.42693604 -165.01185547 137.35387207 -164.37402344 136.24829102 C-163.12729744 134.08731012 -161.88055273 131.92634002 -160.63378906 129.76538086 C-157.45854117 124.26181149 -154.28364505 118.75803968 -151.109375 113.25390625 C-150.46291016 112.13306641 -149.81644531 111.01222656 -149.15039062 109.85742188 C-147.94583786 107.76895269 -146.74139704 105.68041893 -145.53710938 103.59179688 C-140.0360814 94.05458609 -134.51642872 84.52837688 -129 75 C-158.37 74.67 -187.74 74.34 -218 74 C-217.11564249 69.57821246 -216.31555674 67.42170397 -214.11328125 63.66796875 C-213.51161133 62.63422119 -212.90994141 61.60047363 -212.29003906 60.53540039 C-211.63745117 59.43059326 -210.98486328 58.32578613 -210.3125 57.1875 C-209.63312603 56.02569671 -208.95442483 54.86349976 -208.27636719 53.70092773 C-206.87834116 51.30648886 -205.47634534 48.91444713 -204.07080078 46.52441406 C-201.52744157 42.19891282 -199.00271406 37.86260494 -196.47729492 33.52661133 C-191.72893257 25.37822019 -191.72893257 25.37822019 -189.91061401 22.53701782 C-188.32235391 19.86409781 -187.4646278 17.30052646 -186.62239075 14.3132782 C-184.62419863 8.3845217 -182.22408731 3.65498613 -177 0 C-165.42577866 -3.51458327 -152.56918322 -2.42445577 -140.61293864 -2.16134548 C-135.74393875 -2.07403148 -130.87535918 -2.09417712 -126.00575256 -2.10235596 C-116.7952161 -2.10147 -107.58839147 -2.00327093 -98.37892014 -1.87028623 C-87.89747827 -1.72409629 -77.4166246 -1.69265406 -66.93430889 -1.66813231 C-51.50419083 -1.62828537 -36.07426673 -1.54678046 -20.64524078 -1.35428047 C-18.97386853 -1.33376211 -17.30247611 -1.31482014 -15.63106728 -1.29753685 C-13.35733662 -1.27334782 -11.08378811 -1.2427983 -8.81016541 -1.21014404 C-6.89859602 -1.18557192 -6.89859602 -1.18557192 -4.94840908 -1.16050339 C-2 -1 -2 -1 0 0 Z " fill="url(#gradient-ff8vjhw)" transform="translate(1072,244)"/>
	<path d="M0 0 C28.05 0 56.1 0 85 0 C89.95 8.91 94.9 17.82 100 27 C103.66557985 33.27899282 103.66557985 33.27899282 107.36328125 39.5390625 C110.68875802 45.14245845 113.93494253 50.79157467 117.1875 56.4375 C117.82558594 57.54488525 118.46367188 58.65227051 119.12109375 59.79321289 C120.42906691 62.06369079 121.73684513 64.334281 123.04443359 66.60498047 C126.19332054 72.0716998 129.34683264 77.53574887 132.5 83 C133.7500235 85.16665311 135.00002347 87.33331979 136.25 89.5 C137.178125 91.10875 137.178125 91.10875 138.125 92.75 C143.75 102.5 143.75 102.5 145.62524414 105.75048828 C146.87435518 107.91557071 148.12354129 110.08060982 149.37280273 112.24560547 C152.51202309 117.68615706 155.64990563 123.12747216 158.78515625 128.5703125 C164.2597276 138.07163468 169.73443843 147.57257623 175.27246094 157.03710938 C176.41712823 159.00032055 177.55460402 160.96774383 178.68457031 162.93945312 C181.44302404 167.7346997 184.26324649 172.44922044 187.31715393 177.06364441 C199.94101098 196.17221947 199.94101098 196.17221947 198.734375 202.15234375 C197.22008733 205.24106604 195.56956126 207.74264368 193.33642578 210.35400391 C191.47788104 212.64306285 190.10165413 215.12223395 188.65991211 217.68725586 C187.45492458 219.83016044 186.20207341 221.93863012 184.9375 224.046875 C181.39389014 229.99401969 177.95129827 235.99898119 174.5 242 C168.72322509 252.03384388 162.89751191 262.03667399 157 272 C153.97162017 269.18356986 151.8925268 266.4279552 149.85546875 262.8359375 C148.97556274 261.29655518 148.97556274 261.29655518 148.07788086 259.72607422 C147.45405518 258.62021973 146.83022949 257.51436523 146.1875 256.375 C145.52355547 255.20940622 144.85891059 254.04421112 144.19360352 252.87939453 C142.81186074 250.4589128 141.4331433 248.03674658 140.05664062 245.61328125 C136.87622311 240.0189201 133.65574009 234.44765899 130.4375 228.875 C129.81633301 227.79766602 129.19516602 226.72033203 128.55517578 225.61035156 C124.41527102 218.43422922 120.24566806 211.27596824 116.0625 204.125 C110.64078822 194.85500223 105.29795085 185.54168248 99.98077393 176.21154785 C94.77954871 167.0871716 89.51972122 157.99867226 84.21655273 148.93310547 C78.06233258 138.40915375 71.97630004 127.84619863 65.89111328 117.28222656 C62.76319852 111.85340058 59.63141552 106.42680719 56.5 101 C55.24998121 98.83334417 53.99998122 96.6666775 52.75 94.5 C52.13125 93.4275 51.5125 92.355 50.875 91.25 C44 79.33333333 37.125 67.41666667 30.25 55.5 C29.63036377 54.42596924 29.01072754 53.35193848 28.37231445 52.24536133 C27.13124746 50.09416776 25.89019907 47.94296345 24.64916992 45.79174805 C21.73501656 40.74037001 18.82068182 35.6890969 15.90567017 30.63821411 C14.87326522 28.84933082 13.84092044 27.06041283 12.80859375 25.27148438 C11.51314052 23.02662364 10.2175743 20.7818281 8.921875 18.53710938 C7.77753527 16.55400634 6.63497729 14.56987353 5.49462891 12.58447266 C4.57164162 10.98846752 3.63846378 9.39824753 2.68896484 7.81787109 C0 3.31035096 0 3.31035096 0 0 Z " fill="url(#gradient-ff8vjhw)" transform="translate(498,394)"/>
	<defs>
		<linearGradient id="gradient-ff8vjhw" x1="0%" y1="50%" x2="100%" y2="50%">
			<stop offset="0%" stop-color="#9000ff"/>
			<stop offset="100%" stop-color="#3102b6"/>
		</linearGradient>
	</defs>
</svg>